<mxfile host="app.diagrams.net" modified="2021-02-22T09:59:45.917Z" agent="5.0 (Windows NT 10.0; Win64; x64) AppleWebKit/537.36 (KHTML, like Gecko) Chrome/88.0.4324.182 Safari/537.36" etag="j7u8_-blN31kO6xchcv0" version="14.1.8" type="github">
  <diagram id="C5RBs43oDa-KdzZeNtuy" name="Page-1">
    <mxGraphModel dx="981" dy="548" grid="1" gridSize="10" guides="1" tooltips="1" connect="1" arrows="1" fold="1" page="1" pageScale="1" pageWidth="827" pageHeight="1169" math="0" shadow="0">
      <root>
        <mxCell id="WIyWlLk6GJQsqaUBKTNV-0" />
        <mxCell id="WIyWlLk6GJQsqaUBKTNV-1" parent="WIyWlLk6GJQsqaUBKTNV-0" />
        <mxCell id="_EtP62zZQlGIEwSq7qpw-54" value="" style="shape=ext;double=1;rounded=0;whiteSpace=wrap;html=1;dashed=1;" vertex="1" parent="WIyWlLk6GJQsqaUBKTNV-1">
          <mxGeometry x="447.75" y="30" width="344.5" height="320" as="geometry" />
        </mxCell>
        <mxCell id="_EtP62zZQlGIEwSq7qpw-53" value="" style="shape=ext;double=1;rounded=0;whiteSpace=wrap;html=1;dashed=1;" vertex="1" parent="WIyWlLk6GJQsqaUBKTNV-1">
          <mxGeometry x="45.5" y="30" width="344.5" height="320" as="geometry" />
        </mxCell>
        <mxCell id="_EtP62zZQlGIEwSq7qpw-4" value="天津存证" style="whiteSpace=wrap;html=1;" vertex="1" parent="WIyWlLk6GJQsqaUBKTNV-1">
          <mxGeometry x="105" y="50" width="110" height="20" as="geometry" />
        </mxCell>
        <mxCell id="_EtP62zZQlGIEwSq7qpw-5" value="DB" style="shape=cylinder;whiteSpace=wrap;html=1;boundedLbl=1;backgroundOutline=1;" vertex="1" parent="WIyWlLk6GJQsqaUBKTNV-1">
          <mxGeometry x="60" y="180" width="40" height="40" as="geometry" />
        </mxCell>
        <mxCell id="_EtP62zZQlGIEwSq7qpw-28" style="edgeStyle=orthogonalEdgeStyle;rounded=0;orthogonalLoop=1;jettySize=auto;html=1;exitX=0.1;exitY=0.5;exitDx=0;exitDy=0;exitPerimeter=0;entryX=1;entryY=0.5;entryDx=0;entryDy=0;" edge="1" parent="WIyWlLk6GJQsqaUBKTNV-1" source="_EtP62zZQlGIEwSq7qpw-6" target="_EtP62zZQlGIEwSq7qpw-5">
          <mxGeometry relative="1" as="geometry" />
        </mxCell>
        <mxCell id="_EtP62zZQlGIEwSq7qpw-6" value="" style="shape=curlyBracket;whiteSpace=wrap;html=1;rounded=1;" vertex="1" parent="WIyWlLk6GJQsqaUBKTNV-1">
          <mxGeometry x="105" y="140" width="20" height="120" as="geometry" />
        </mxCell>
        <mxCell id="_EtP62zZQlGIEwSq7qpw-21" style="edgeStyle=orthogonalEdgeStyle;rounded=0;orthogonalLoop=1;jettySize=auto;html=1;exitX=0.5;exitY=0;exitDx=0;exitDy=0;entryX=0;entryY=0;entryDx=0;entryDy=15.75;entryPerimeter=0;" edge="1" parent="WIyWlLk6GJQsqaUBKTNV-1" source="_EtP62zZQlGIEwSq7qpw-7" target="_EtP62zZQlGIEwSq7qpw-15">
          <mxGeometry relative="1" as="geometry">
            <Array as="points">
              <mxPoint x="190" y="90" />
              <mxPoint x="724" y="90" />
            </Array>
          </mxGeometry>
        </mxCell>
        <mxCell id="_EtP62zZQlGIEwSq7qpw-7" value="evidence_info&lt;br&gt;（全账本）" style="whiteSpace=wrap;html=1;" vertex="1" parent="WIyWlLk6GJQsqaUBKTNV-1">
          <mxGeometry x="130" y="130" width="120" height="50" as="geometry" />
        </mxCell>
        <mxCell id="_EtP62zZQlGIEwSq7qpw-8" value="evidence_info_by_tag&lt;br&gt;（标签:&quot;驳回&quot;/&quot;回函&quot;，与用户无关）" style="whiteSpace=wrap;html=1;" vertex="1" parent="WIyWlLk6GJQsqaUBKTNV-1">
          <mxGeometry x="125" y="250" width="136" height="50" as="geometry" />
        </mxCell>
        <mxCell id="_EtP62zZQlGIEwSq7qpw-9" value="链" style="html=1;shadow=0;dashed=0;align=center;verticalAlign=middle;shape=mxgraph.arrows2.arrow;dy=0.6;dx=40;direction=south;notch=0;" vertex="1" parent="WIyWlLk6GJQsqaUBKTNV-1">
          <mxGeometry x="67.5" y="100" width="25" height="70" as="geometry" />
        </mxCell>
        <mxCell id="_EtP62zZQlGIEwSq7qpw-11" value="前置系统存证" style="whiteSpace=wrap;html=1;" vertex="1" parent="WIyWlLk6GJQsqaUBKTNV-1">
          <mxGeometry x="560" y="40" width="120" height="20" as="geometry" />
        </mxCell>
        <mxCell id="_EtP62zZQlGIEwSq7qpw-12" value="DB" style="shape=cylinder;whiteSpace=wrap;html=1;boundedLbl=1;backgroundOutline=1;" vertex="1" parent="WIyWlLk6GJQsqaUBKTNV-1">
          <mxGeometry x="700" y="180" width="40" height="40" as="geometry" />
        </mxCell>
        <mxCell id="_EtP62zZQlGIEwSq7qpw-27" style="edgeStyle=orthogonalEdgeStyle;rounded=0;orthogonalLoop=1;jettySize=auto;html=1;exitX=0.1;exitY=0.5;exitDx=0;exitDy=0;exitPerimeter=0;entryX=0;entryY=0.5;entryDx=0;entryDy=0;" edge="1" parent="WIyWlLk6GJQsqaUBKTNV-1" source="_EtP62zZQlGIEwSq7qpw-13" target="_EtP62zZQlGIEwSq7qpw-12">
          <mxGeometry relative="1" as="geometry" />
        </mxCell>
        <mxCell id="_EtP62zZQlGIEwSq7qpw-13" value="" style="shape=curlyBracket;whiteSpace=wrap;html=1;rounded=1;rotation=-180;" vertex="1" parent="WIyWlLk6GJQsqaUBKTNV-1">
          <mxGeometry x="660" y="140" width="20" height="120" as="geometry" />
        </mxCell>
        <mxCell id="_EtP62zZQlGIEwSq7qpw-14" value="evidence_info&lt;br&gt;（仅用户相关）" style="whiteSpace=wrap;html=1;" vertex="1" parent="WIyWlLk6GJQsqaUBKTNV-1">
          <mxGeometry x="544" y="130" width="96" height="40" as="geometry" />
        </mxCell>
        <mxCell id="_EtP62zZQlGIEwSq7qpw-15" value="ApI" style="html=1;shadow=0;dashed=0;align=center;verticalAlign=middle;shape=mxgraph.arrows2.arrow;dy=0.6;dx=40;direction=south;notch=0;" vertex="1" parent="WIyWlLk6GJQsqaUBKTNV-1">
          <mxGeometry x="694.75" y="110" width="45.25" height="70" as="geometry" />
        </mxCell>
        <mxCell id="_EtP62zZQlGIEwSq7qpw-16" value="evidence_info_by_tag&lt;br&gt;(空)" style="whiteSpace=wrap;html=1;" vertex="1" parent="WIyWlLk6GJQsqaUBKTNV-1">
          <mxGeometry x="524" y="230" width="136" height="50" as="geometry" />
        </mxCell>
        <mxCell id="_EtP62zZQlGIEwSq7qpw-30" value="注:1 函证数据同步接口&lt;span&gt;evidences_sync_by_tag&lt;/span&gt;&lt;br&gt;，请求tag_type参数含义：&lt;br&gt;&lt;table style=&quot;text-align: left&quot;&gt;&lt;tbody&gt;&lt;tr&gt;&lt;td&gt;tag_type=0：返回用户相关的存证数据（evidence_info）&lt;/td&gt;&lt;/tr&gt;&lt;/tbody&gt;&lt;/table&gt;&lt;span style=&quot;text-align: left&quot;&gt;tag_type=1：返回用户相关的存证数据（evidence_info_by_tag）&lt;br&gt;注:2 交易hash都是请求的&lt;/span&gt;&lt;span style=&quot;text-align: left&quot;&gt;evidence_info&lt;/span&gt;&lt;span style=&quot;text-align: left&quot;&gt;&lt;br&gt;&lt;/span&gt;" style="text;html=1;align=center;verticalAlign=middle;resizable=0;points=[];autosize=1;fillColor=#fff2cc;strokeColor=#d6b656;" vertex="1" parent="WIyWlLk6GJQsqaUBKTNV-1">
          <mxGeometry x="105" y="410" width="360" height="80" as="geometry" />
        </mxCell>
      </root>
    </mxGraphModel>
  </diagram>
</mxfile>
